<?xml version="1.0" encoding="UTF-8" standalone="no"?>
<!DOCTYPE svg PUBLIC "-//W3C//DTD SVG 1.1//EN" "http://www.w3.org/Graphics/SVG/1.1/DTD/svg11.dtd">
<svg version="1.1" xmlns="http://www.w3.org/2000/svg" xmlns:xlink="http://www.w3.org/1999/xlink" preserveAspectRatio="xMidYMid meet" viewBox="0 0 640 640" width="512" height="512"><defs><path d="M351.78 16.66L361.2 20.43L370.44 24.55L379.49 29.01L388.33 33.81L396.96 38.94L405.37 44.39L413.55 50.15L421.5 56.22L429.21 62.57L436.66 69.22L443.85 76.14L450.77 83.33L457.41 90.78L463.77 98.48L469.84 106.43L475.6 114.61L481.05 123.02L486.18 131.66L490.98 140.5L495.45 149.54L499.57 158.78L503.34 168.2L506.75 177.8L509.78 187.57L512.44 197.51L514.72 207.59L516.6 217.82L518.07 228.18L519.14 238.67L519.78 249.28L520 260L519.98 263.19L519.92 266.37L519.82 269.55L519.69 272.71L519.52 275.86L519.3 279L519.05 282.13L518.77 285.25L518.44 288.36L518.08 291.46L517.69 294.55L517.25 297.62L516.78 300.69L516.28 303.74L515.73 306.78L515.16 309.8L514.55 312.82L513.9 315.82L513.22 318.81L512.5 321.79L511.75 324.75L510.97 327.7L510.15 330.63L509.3 333.55L508.42 336.46L507.5 339.35L506.55 342.23L505.57 345.1L504.56 347.95L503.51 350.78L502.43 353.6L501.33 356.4L500.19 359.19L499.02 361.96L497.82 364.71L496.59 367.45L495.32 370.17L494.03 372.88L492.71 375.57L491.37 378.24L616.58 503.44L618.86 505.82L621.03 508.27L623.08 510.78L625.01 513.36L626.83 515.99L628.53 518.68L630.11 521.42L631.57 524.21L632.92 527.04L634.15 529.91L635.26 532.82L636.26 535.76L637.14 538.73L637.9 541.72L638.54 544.74L639.07 547.77L639.48 550.82L639.77 553.88L639.95 556.94L640.01 560.02L639.95 563.09L639.77 566.15L639.48 569.21L639.07 572.26L638.54 575.29L637.9 578.31L637.14 581.3L636.26 584.27L635.26 587.21L634.15 590.11L632.92 592.98L631.57 595.81L630.11 598.6L628.53 601.33L626.83 604.02L625.01 606.65L623.08 609.23L621.03 611.74L618.86 614.18L616.58 616.56L615.4 617.72L614.2 618.85L612.98 619.94L611.75 621.01L610.5 622.05L609.23 623.06L607.95 624.05L606.66 625L605.34 625.92L604.02 626.81L602.68 627.68L601.33 628.51L599.97 629.32L598.59 630.1L597.2 630.84L595.8 631.56L594.39 632.25L592.97 632.91L591.54 633.54L590.1 634.14L588.65 634.71L587.19 635.25L585.73 635.77L584.25 636.25L582.77 636.7L581.29 637.13L579.79 637.52L578.29 637.89L576.79 638.23L575.28 638.53L573.76 638.81L572.24 639.06L570.72 639.28L569.2 639.47L567.67 639.63L566.14 639.77L564.6 639.87L563.07 639.94L561.54 639.99L560 640L558.46 639.99L556.93 639.94L555.4 639.87L553.86 639.77L552.33 639.63L550.81 639.47L549.28 639.28L547.76 639.06L546.24 638.81L544.72 638.54L543.21 638.23L541.71 637.89L540.21 637.52L538.72 637.13L537.23 636.7L535.75 636.25L534.27 635.77L532.81 635.25L531.35 634.71L529.9 634.14L528.46 633.54L527.03 632.91L525.61 632.25L524.2 631.56L522.81 630.85L521.42 630.1L520.04 629.32L518.68 628.52L517.33 627.68L515.99 626.82L514.67 625.92L513.36 625L512.06 624.05L510.78 623.07L509.52 622.05L508.27 621.01L507.04 619.94L505.82 618.85L504.62 617.72L503.44 616.56L378.25 491.37L375.57 492.71L372.88 494.03L370.18 495.32L367.46 496.58L364.72 497.81L361.96 499.01L359.19 500.18L356.4 501.32L353.6 502.43L350.78 503.5L347.95 504.55L345.1 505.56L342.23 506.54L339.36 507.49L336.46 508.41L333.56 509.29L330.63 510.14L327.7 510.96L324.75 511.74L321.79 512.49L318.81 513.21L315.82 513.89L312.82 514.54L309.81 515.15L306.78 515.73L303.74 516.27L300.69 516.78L297.62 517.25L294.55 517.68L291.46 518.08L288.36 518.44L285.25 518.77L282.13 519.05L279 519.3L275.86 519.51L272.71 519.69L269.55 519.82L266.37 519.92L263.19 519.98L260 520L249.28 519.78L238.68 519.14L228.19 518.07L217.83 516.6L207.61 514.72L197.53 512.45L187.6 509.79L177.83 506.75L168.23 503.34L158.8 499.57L149.57 495.45L140.52 490.99L131.68 486.19L123.05 481.06L114.64 475.61L106.46 469.85L98.51 463.78L90.8 457.43L83.35 450.78L76.16 443.86L69.24 436.67L62.59 429.22L56.23 421.52L50.17 413.57L44.41 405.39L38.96 396.98L33.83 388.34L29.02 379.5L24.56 370.46L20.43 361.22L16.67 351.8L13.26 342.2L10.22 332.43L7.56 322.49L5.28 312.41L3.4 302.18L1.93 291.82L0.86 281.33L0.22 270.72L0 260L0.22 249.28L0.86 238.67L1.93 228.18L3.4 217.82L5.28 207.59L7.56 197.51L10.22 187.57L13.26 177.8L16.67 168.2L20.43 158.78L24.56 149.54L29.02 140.5L33.83 131.66L38.96 123.02L44.41 114.61L50.17 106.43L56.23 98.48L62.59 90.78L69.24 83.33L76.16 76.14L83.35 69.22L90.8 62.57L98.51 56.22L106.46 50.15L114.64 44.39L123.05 38.94L131.68 33.81L140.52 29.01L149.57 24.55L158.8 20.43L168.23 16.66L177.83 13.25L187.6 10.21L197.53 7.55L207.61 5.28L217.83 3.4L228.19 1.93L238.68 0.86L249.28 0.22L260 0L270.72 0.22L281.32 0.86L291.81 1.93L302.17 3.4L312.4 5.28L322.48 7.55L332.41 10.21L342.18 13.25L342.18 13.25L351.78 16.66ZM182.42 54.12L174.45 57.31L166.63 60.8L158.98 64.59L151.5 68.66L144.2 73L137.08 77.62L130.15 82.5L123.43 87.63L116.91 93.02L110.6 98.64L104.51 104.5L98.65 110.59L93.02 116.9L87.64 123.42L82.5 130.15L77.62 137.07L73.01 144.19L68.66 151.49L64.59 158.97L60.81 166.62L57.32 174.44L54.12 182.41L51.23 190.53L48.66 198.79L46.4 207.19L44.48 215.71L42.88 224.36L41.63 233.12L40.73 241.98L40.18 250.94L40 260L40.18 269.06L40.73 278.02L41.63 286.88L42.88 295.64L44.48 304.29L46.4 312.81L48.66 321.21L51.23 329.47L54.12 337.59L57.32 345.56L60.81 353.38L64.59 361.03L68.66 368.51L73.01 375.81L77.62 382.93L82.5 389.85L87.64 396.58L93.02 403.1L98.65 409.41L104.51 415.5L110.6 421.36L116.91 426.98L123.43 432.37L130.15 437.5L137.08 442.38L144.2 447L151.5 451.34L158.98 455.41L166.63 459.2L174.45 462.69L182.42 465.88L190.54 468.77L198.8 471.34L207.19 473.6L215.72 475.52L224.36 477.12L233.12 478.37L241.98 479.27L250.95 479.82L260 480L262.62 479.98L265.23 479.94L267.84 479.86L270.44 479.76L273.03 479.62L275.63 479.45L278.21 479.25L280.79 479.02L283.37 478.76L285.94 478.47L288.5 478.15L291.06 477.8L293.61 477.42L296.16 477.01L298.7 476.57L301.24 476.1L303.76 475.59L306.29 475.06L308.8 474.5L311.31 473.91L313.82 473.28L316.31 472.63L318.8 471.95L321.29 471.23L323.76 470.49L326.23 469.72L328.69 468.91L331.15 468.08L333.6 467.21L336.04 466.32L338.47 465.4L340.9 464.44L343.31 463.46L345.72 462.45L348.13 461.4L350.52 460.33L352.91 459.23L355.29 458.09L357.66 456.93L360.02 455.74L385.94 442.5L531.72 588.28L532.29 588.84L532.87 589.39L533.46 589.93L534.06 590.45L534.66 590.96L535.28 591.46L535.9 591.94L536.53 592.41L537.17 592.87L537.82 593.31L538.47 593.74L539.13 594.15L539.8 594.56L540.48 594.94L541.16 595.32L541.85 595.68L542.55 596.03L543.26 596.36L543.96 596.68L544.68 596.98L545.4 597.27L546.13 597.55L546.86 597.81L547.6 598.06L548.34 598.29L549.09 598.51L549.85 598.71L550.6 598.9L551.37 599.08L552.13 599.23L552.9 599.38L553.68 599.51L554.46 599.62L555.24 599.72L556.03 599.81L556.82 599.88L557.61 599.93L558.4 599.97L559.2 599.99L560 600L560.8 599.99L561.6 599.97L562.39 599.93L563.18 599.88L563.97 599.81L564.76 599.72L565.54 599.62L566.32 599.5L567.1 599.37L567.87 599.23L568.63 599.07L569.4 598.89L570.15 598.7L570.91 598.5L571.66 598.28L572.4 598.05L573.14 597.8L573.87 597.54L574.6 597.26L575.32 596.97L576.04 596.66L576.75 596.34L577.45 596.01L578.15 595.66L578.84 595.3L579.53 594.93L580.2 594.54L580.87 594.14L581.54 593.72L582.19 593.29L582.84 592.85L583.48 592.39L584.11 591.93L584.74 591.44L585.35 590.95L585.96 590.44L586.56 589.92L587.15 589.39L587.73 588.84L588.3 588.28L588.86 587.71L589.41 587.13L589.94 586.54L590.46 585.94L590.97 585.34L591.47 584.72L591.95 584.1L592.42 583.47L592.88 582.83L593.32 582.19L593.75 581.53L594.16 580.87L594.56 580.2L594.95 579.52L595.32 578.84L595.68 578.15L596.03 577.45L596.36 576.75L596.68 576.04L596.99 575.33L597.27 574.61L597.55 573.88L597.81 573.15L598.06 572.41L598.29 571.66L598.51 570.92L598.71 570.16L598.9 569.4L599.08 568.64L599.23 567.87L599.38 567.1L599.51 566.33L599.62 565.55L599.72 564.77L599.81 563.98L599.88 563.19L599.93 562.4L599.97 561.6L599.99 560.8L600 560L599.99 559.2L599.97 558.4L599.93 557.61L599.88 556.82L599.81 556.03L599.72 555.25L599.62 554.47L599.51 553.69L599.38 552.91L599.23 552.14L599.07 551.38L598.9 550.61L598.71 549.86L598.5 549.1L598.29 548.35L598.05 547.61L597.8 546.87L597.54 546.14L597.27 545.41L596.97 544.69L596.67 543.97L596.35 543.26L596.02 542.56L595.67 541.86L595.31 541.17L594.94 540.49L594.55 539.81L594.15 539.14L593.73 538.48L593.3 537.82L592.86 537.17L592.4 536.53L591.93 535.9L591.45 535.28L590.95 534.66L590.45 534.06L589.92 533.46L589.39 532.87L588.84 532.29L588.28 531.72L463.09 406.53L442.48 385.94L455.76 360L456.95 357.64L458.11 355.27L459.24 352.9L460.34 350.51L461.42 348.12L462.46 345.72L463.47 343.31L464.45 340.9L465.41 338.47L466.33 336.04L467.22 333.6L468.08 331.16L468.92 328.7L469.72 326.24L470.49 323.78L471.24 321.3L471.95 318.82L472.63 316.33L473.29 313.84L473.91 311.33L474.5 308.82L475.06 306.31L475.6 303.79L476.1 301.26L476.57 298.72L477.01 296.18L477.42 293.64L477.8 291.08L478.15 288.52L478.47 285.96L478.76 283.39L479.02 280.81L479.25 278.23L479.45 275.64L479.62 273.05L479.76 270.45L479.86 267.84L479.94 265.23L479.98 262.62L480 260L479.82 250.94L479.27 241.98L478.37 233.12L477.12 224.36L475.52 215.71L473.6 207.19L471.34 198.79L468.77 190.53L465.88 182.41L462.68 174.44L459.19 166.62L455.41 158.97L451.34 151.49L446.99 144.19L442.38 137.07L437.5 130.15L432.36 123.42L426.98 116.9L421.35 110.59L415.49 104.5L409.4 98.64L403.09 93.02L396.57 87.63L389.85 82.5L382.92 77.62L375.8 73L368.5 68.66L361.02 64.59L353.37 60.8L345.55 57.31L337.58 54.12L329.46 51.23L321.2 48.66L312.81 46.4L304.28 44.48L295.64 42.88L286.88 41.63L278.02 40.73L269.05 40.18L260 40L250.95 40.18L241.98 40.73L233.12 41.63L224.36 42.88L215.72 44.48L207.19 46.4L198.8 48.66L190.54 51.23L190.54 51.23L182.42 54.12Z" id="b1rKleiQP"></path><path d="M491.43 0.06L492.52 0.14L493.61 0.24L494.69 0.37L495.76 0.54L496.83 0.73L497.89 0.95L498.94 1.2L499.98 1.47L501.01 1.78L502.03 2.11L503.04 2.46L504.04 2.85L505.03 3.26L506 3.69L506.97 4.15L507.92 4.64L508.86 5.15L509.78 5.69L510.69 6.25L511.58 6.83L512.46 7.44L513.32 8.07L514.16 8.73L514.99 9.41L515.8 10.11L516.59 10.83L517.37 11.58L518.12 12.34L518.85 13.13L519.57 13.94L520.26 14.77L520.93 15.62L521.59 16.49L522.21 17.38L522.82 18.29L523.4 19.22L523.96 20.16L524.5 21.13L525 22.11L525.48 23.1L525.93 24.1L526.35 25.11L526.74 26.13L527.11 27.15L527.44 28.18L527.75 29.22L528.02 30.26L528.27 31.31L528.49 32.36L528.68 33.42L528.84 34.48L528.98 35.54L529.08 36.6L529.16 37.67L529.21 38.74L529.23 39.8L529.22 40.87L529.18 41.94L529.11 43L529.02 44.06L528.9 45.12L528.75 46.18L528.57 47.24L528.36 48.28L528.12 49.33L527.86 50.37L527.57 51.4L527.25 52.43L526.9 53.44L526.52 54.45L526.12 55.46L525.69 56.45L525.23 57.43L524.74 58.41L524.22 59.37L523.68 60.32L523.11 61.26L522.51 62.18L403.97 240L489.23 240L490.44 240.02L491.64 240.07L492.84 240.16L494.02 240.29L495.2 240.45L496.37 240.64L497.53 240.87L498.69 241.13L499.82 241.43L500.95 241.76L502.07 242.12L503.17 242.51L504.26 242.94L505.33 243.39L506.39 243.88L507.44 244.39L508.46 244.94L509.48 245.51L510.47 246.12L511.45 246.75L512.4 247.41L513.34 248.09L514.26 248.81L515.15 249.55L516.03 250.32L516.88 251.11L517.72 251.93L518.52 252.77L519.31 253.64L520.07 254.53L520.8 255.45L521.51 256.39L522.2 257.35L522.85 258.33L523.48 259.34L524.08 260.37L524.65 261.42L525.19 262.49L525.7 263.58L526.18 264.69L526.63 265.81L527.04 266.94L527.41 268.09L527.75 269.23L528.06 270.38L528.33 271.54L528.56 272.7L528.76 273.86L528.92 275.03L529.05 276.2L529.14 277.37L529.2 278.54L529.23 279.7L529.22 280.87L529.18 282.04L529.1 283.2L528.99 284.36L528.85 285.51L528.67 286.66L528.46 287.8L528.22 288.94L527.94 290.07L527.63 291.19L527.29 292.3L526.92 293.4L526.51 294.49L526.07 295.57L525.6 296.64L525.1 297.7L524.57 298.74L524 299.77L523.4 300.79L522.78 301.79L522.12 302.77L521.42 303.73L520.7 304.68L519.95 305.61L519.17 306.52L518.36 307.41L517.51 308.28L514.7 311.09L506.72 319.07L501.64 324.15L495.89 329.91L489.5 336.29L482.53 343.26L449.61 376.18L440.33 385.46L430.71 395.08L400.26 425.53L389.72 436.07L379.06 446.74L357.51 468.28L346.72 479.07L335.97 489.82L325.3 500.49L314.76 511.03L294.22 531.57L284.31 541.48L265.42 560.38L256.51 569.28L240.01 585.78L232.49 593.3L219.14 606.66L213.38 612.41L208.3 617.49L203.94 621.86L197.51 628.28L196.93 628.86L196.33 629.42L195.73 629.96L195.11 630.5L194.49 631.02L193.86 631.52L193.23 632.01L192.58 632.48L191.93 632.95L191.27 633.39L190.6 633.82L189.93 634.24L189.25 634.64L188.56 635.03L187.87 635.41L187.17 635.76L186.47 636.11L185.76 636.44L185.04 636.75L184.32 637.06L183.6 637.34L182.87 637.61L182.13 637.87L181.4 638.11L180.65 638.34L179.91 638.56L179.16 638.75L178.41 638.94L177.65 639.11L176.9 639.26L176.13 639.4L175.37 639.53L174.61 639.64L173.84 639.73L173.07 639.82L172.3 639.88L171.53 639.93L170.76 639.97L169.99 639.99L169.21 640L168.57 639.99L167.94 639.98L167.3 639.95L166.66 639.92L166.02 639.87L165.39 639.82L164.75 639.75L164.12 639.68L163.48 639.59L162.85 639.49L162.22 639.39L161.59 639.27L160.96 639.14L160.33 639L159.7 638.86L159.08 638.7L158.45 638.53L157.83 638.35L157.21 638.16L156.6 637.96L155.98 637.75L155.37 637.53L154.76 637.3L154.16 637.06L153.55 636.81L152.95 636.55L152.36 636.28L151.76 636L151.17 635.7L150.59 635.4L150 635.09L149.43 634.76L148.85 634.43L148.28 634.08L147.71 633.73L147.15 633.36L146.6 632.99L146.04 632.6L145.5 632.2L144.95 631.8L143.78 630.86L142.65 629.89L141.56 628.89L140.52 627.86L139.52 626.79L138.57 625.69L137.66 624.57L136.8 623.41L135.98 622.23L135.21 621.03L134.48 619.8L133.8 618.55L133.16 617.28L132.57 615.99L132.03 614.68L131.53 613.36L131.09 612.02L130.69 610.67L130.33 609.3L130.03 607.93L129.77 606.54L129.57 605.14L129.41 603.74L129.3 602.33L129.24 600.92L129.23 599.51L129.28 598.09L129.37 596.67L129.51 595.26L129.7 593.84L129.95 592.44L130.24 591.03L130.59 589.63L130.99 588.25L131.44 586.87L131.95 585.5L132.51 584.14L133.12 582.8L133.78 581.47L134.5 580.16L260.3 360L129.23 360L128.16 359.99L127.1 359.94L126.04 359.87L124.99 359.78L123.94 359.65L122.9 359.5L121.87 359.32L120.84 359.11L119.82 358.88L118.81 358.62L117.81 358.34L116.82 358.03L115.83 357.69L114.86 357.34L113.9 356.95L112.95 356.54L112.01 356.11L111.08 355.65L110.17 355.17L109.26 354.67L108.38 354.14L107.5 353.59L106.64 353.02L105.79 352.42L104.96 351.8L104.15 351.17L103.35 350.5L102.56 349.82L101.8 349.12L101.05 348.4L100.32 347.65L99.61 346.89L98.92 346.1L98.24 345.3L97.59 344.48L96.96 343.63L96.34 342.77L95.75 341.89L95.18 340.99L94.64 340.08L94.11 339.14L93.62 338.2L93.15 337.25L92.7 336.29L92.28 335.32L91.89 334.35L91.53 333.36L91.19 332.37L90.88 331.38L90.6 330.37L90.34 329.36L90.11 328.35L89.91 327.33L89.73 326.31L89.58 325.29L89.46 324.26L89.36 323.23L89.29 322.2L89.25 321.17L89.23 320.13L89.24 319.1L89.28 318.07L89.34 317.03L89.43 316L89.55 314.97L89.69 313.95L89.86 312.93L90.06 311.91L90.28 310.89L90.53 309.88L90.81 308.88L91.11 307.88L91.44 306.88L91.8 305.9L92.18 304.92L92.59 303.95L93.03 302.99L93.5 302.03L93.99 301.09L94.5 300.16L215.91 87.69L246.57 34.04L254.5 20.15L255.05 19.23L255.61 18.32L256.2 17.43L256.81 16.56L257.45 15.71L258.1 14.88L258.77 14.07L259.47 13.27L260.18 12.5L260.91 11.75L261.66 11.02L262.43 10.31L263.21 9.62L264.01 8.95L264.83 8.3L265.66 7.68L266.51 7.08L267.38 6.5L268.26 5.94L269.15 5.4L270.05 4.89L270.97 4.41L271.91 3.94L272.85 3.51L273.81 3.09L274.77 2.7L275.75 2.34L276.74 2L277.74 1.68L278.75 1.4L279.76 1.14L280.79 0.9L281.82 0.69L282.86 0.51L283.91 0.35L284.96 0.23L286.02 0.13L287.08 0.06L288.15 0.01L289.23 0L489.23 0L490.33 0.02L491.43 0.06ZM129.23 320L294.85 320L295.68 320.02L296.49 320.07L297.3 320.15L298.1 320.26L298.89 320.41L299.66 320.58L300.43 320.79L301.18 321.02L301.92 321.28L302.64 321.57L303.35 321.89L304.05 322.23L304.73 322.6L305.39 322.99L306.04 323.41L306.67 323.86L307.28 324.32L307.87 324.81L308.44 325.32L309 325.85L309.53 326.41L310.04 326.98L310.53 327.57L311 328.18L311.44 328.81L311.86 329.46L312.25 330.12L312.62 330.8L312.97 331.5L313.28 332.21L313.57 332.94L313.83 333.67L314.07 334.43L314.27 335.19L314.45 335.97L314.59 336.75L314.7 337.55L314.79 338.36L314.84 339.17L314.85 340L314.85 345.16L169.23 600L489.23 280L366.73 280L365.9 279.98L365.09 279.93L364.28 279.85L363.48 279.74L362.69 279.59L361.92 279.42L361.15 279.21L360.4 278.98L359.66 278.72L358.94 278.43L358.23 278.11L357.53 277.77L356.85 277.4L356.19 277.01L355.54 276.59L354.91 276.14L354.3 275.68L353.71 275.19L353.13 274.68L352.58 274.15L352.05 273.59L351.54 273.02L351.05 272.43L350.58 271.82L350.14 271.19L349.72 270.54L349.33 269.88L348.96 269.2L348.61 268.5L348.3 267.79L348.01 267.06L347.75 266.33L347.51 265.57L347.31 264.81L347.13 264.03L346.99 263.25L346.88 262.45L346.79 261.64L346.74 260.83L346.73 260L346.74 259.63L346.76 259.25L346.8 258.86L346.86 258.46L346.92 258.04L347.01 257.63L347.1 257.2L347.2 256.77L347.32 256.34L347.44 255.91L347.58 255.47L347.72 255.03L347.87 254.59L348.02 254.15L348.18 253.72L348.34 253.29L348.51 252.86L348.68 252.44L348.85 252.03L349.02 251.62L349.19 251.22L349.37 250.84L349.53 250.46L349.7 250.1L349.86 249.75L350.02 249.42L350.18 249.1L350.33 248.79L350.47 248.51L350.6 248.24L350.72 248L350.84 247.77L350.94 247.57L351.04 247.39L351.12 247.24L351.19 247.11L351.24 247.01L351.28 246.94L351.31 246.89L351.32 246.88L489.23 40L289.23 40L129.23 320Z" id="a6QXig2qP"></path></defs><g><g><path></path><g><use xlink:href="#b1rKleiQP" opacity="1" fill="#b0bec5" fill-opacity="1"></use><g><use xlink:href="#b1rKleiQP" opacity="1" fill-opacity="0" stroke="#000000" stroke-width="1" stroke-opacity="0"></use></g></g><path></path><g><use xlink:href="#a6QXig2qP" opacity="1" fill="#03a9f4" fill-opacity="1"></use><g><use xlink:href="#a6QXig2qP" opacity="1" fill-opacity="0" stroke="#000000" stroke-width="1" stroke-opacity="0"></use></g></g></g></g></svg>